<?xml version="1.0" standalone="no"?>
<!DOCTYPE svg PUBLIC "-//W3C//DTD SVG 20010904//EN"
 "http://www.w3.org/TR/2001/REC-SVG-20010904/DTD/svg10.dtd">
<svg version="1.0" xmlns="http://www.w3.org/2000/svg"
 width="736.000000pt" height="552.000000pt" viewBox="0 0 736.000000 552.000000"
 preserveAspectRatio="xMidYMid meet">

<g transform="translate(0.000000,552.000000) scale(0.100000,-0.100000)"
fill="#000000" stroke="none">
<path d="M3565 4133 c-63 -8 -192 -35 -240 -50 -84 -26 -205 -75 -205 -83 0
-4 26 -10 58 -13 141 -15 355 -98 499 -193 173 -114 363 -335 439 -509 l28
-65 438 0 c241 0 438 2 438 4 0 2 -15 40 -34 83 -191 445 -615 764 -1096 823
-80 9 -260 11 -325 3z"/>
<path d="M2460 3328 c-159 -369 -159 -767 0 -1135 l22 -53 419 0 418 0 -45 47
c-89 91 -162 217 -210 363 -24 75 -28 100 -28 210 0 110 4 135 28 210 48 146
121 272 210 363 l45 47 -418 0 -419 0 -22 -52z"/>
<path d="M4117 2237 c-115 -264 -387 -522 -661 -628 -97 -38 -256 -79 -302
-79 -54 0 -40 -15 44 -48 117 -46 207 -71 317 -87 554 -83 1106 180 1392 662
37 64 113 223 113 239 0 2 -197 4 -438 4 l-438 0 -27 -63z"/>
</g>
</svg>
